<svg width="671" height="671" viewBox="0 0 671 671" fill="none" xmlns="http://www.w3.org/2000/svg">
<circle cx="335.5" cy="335.5" r="335.5" fill="#121214"/>
<path d="M128.7 204.8L181.9 236.7C189.7 241.4 199.7 238.7 204.1 230.8L281.6 91.1C284.6 85.7 280.7 79 274.5 79C272.9 79 271.3 79.5 269.9 80.4L127.9 177.8C118.3 184.4 118.7 198.7 128.7 204.7V204.8ZM96 250.7V374.3C96 382.3 106.4 385.3 110.7 378.7L170.7 286.7C175.7 279.1 173.3 268.9 165.5 264.2L120.2 237C109.6 230.6 96 238.3 96 250.7ZM390.4 91.1L468 230.7C472.4 238.6 482.5 241.3 490.2 236.6L543.4 204.7C553.4 198.7 553.8 184.4 544.2 177.8L402.1 80.4C400.7 79.5 399.1 79 397.5 79C391.3 79 387.4 85.7 390.4 91.1ZM576 250.7C576 238.3 562.4 230.6 551.8 237L506.5 264.2C498.7 268.9 496.4 279.1 501.3 286.7L561.3 378.7C565.6 385.4 576 382.3 576 374.3V250.7ZM526.7 496.7L366.1 515.6C358 516.5 352 523.4 352 531.5V584.3C352 588 355 591.1 358.8 591.1C359.6 591.1 360.4 591 361.2 590.7L533.9 526.7C540 524.5 544 518.7 544 512.2C544 502.9 535.9 495.7 526.7 496.8V496.7ZM313.2 591C316.9 591 320 588 320 584.2V531.6C320 523.5 313.9 516.7 305.9 515.7L145.3 496.7C136.1 495.6 128 502.8 128 512.1C128 518.6 132 524.4 138.1 526.6L310.8 590.6C311.6 590.9 312.4 591 313.2 591V591ZM121.7 461.9L292.6 482.1C300.4 483 306 474.6 302.1 467.8L216.4 317.8C210.5 307.4 195.7 307 189.1 317L110.2 437.2C103.7 447.1 109.9 460.5 121.7 461.9ZM561.3 437.1L482.9 317.1C476.4 307.1 461.5 307.5 455.6 317.9L370.2 467.5C366.3 474.3 371.8 482.7 379.7 481.8L549.8 461.8C561.6 460.4 567.8 447.1 561.3 437.2V437.1ZM344.4 448.1L422.8 310.9C428.9 300.2 421.2 287 408.9 287H263.1C250.8 287 243.1 300.3 249.2 310.9L327.6 448.1C331.3 454.5 340.6 454.5 344.3 448.1H344.4ZM254.4 255H417.6C429.8 255 437.5 241.9 431.6 231.2L351.6 87.2C348.8 82.1 343.4 79 337.6 79H334.4C328.6 79 323.2 82.2 320.4 87.2L240.4 231.2C234.5 241.9 242.2 255 254.4 255V255Z" fill="#EBA417"/>
</svg>
