<svg width="259" height="26" viewBox="0 0 259 26" fill="none" xmlns="http://www.w3.org/2000/svg">
<g clip-path="url(#clip0_7902_4)">
<path d="M12.3733 25.6244C9.97847 25.6244 7.87712 25.1044 6.06926 24.0644C4.28487 23.0244 2.89963 21.5684 1.91352 19.6964C0.927411 17.8013 0.434357 15.5827 0.434357 13.0404C0.434357 11.1222 0.716102 9.40044 1.27959 7.87511C1.84308 6.32666 2.64136 5.00933 3.67442 3.92311C4.73097 2.81377 5.98708 1.97022 7.44276 1.39244C8.92193 0.79155 10.5654 0.491104 12.3733 0.491104C14.7916 0.491104 16.893 1.01111 18.6773 2.05111C20.4617 3.06799 21.847 4.51244 22.8331 6.38444C23.8192 8.25644 24.3122 10.4635 24.3122 13.0058C24.3122 14.924 24.0305 16.6573 23.467 18.2058C22.9035 19.7542 22.0935 21.0831 21.037 22.1924C20.0039 23.3018 18.7478 24.1569 17.2686 24.7578C15.8129 25.3355 14.1812 25.6244 12.3733 25.6244ZM12.3733 21.8111C13.8994 21.8111 15.1908 21.4644 16.2473 20.7711C17.3273 20.0778 18.1491 19.0724 18.7126 17.7551C19.2995 16.4378 19.593 14.8662 19.593 13.0404C19.593 10.2671 18.9591 8.11777 17.6912 6.59244C16.4469 5.06711 14.6742 4.30444 12.3733 4.30444C10.8707 4.30444 9.57933 4.65111 8.49931 5.34444C7.41929 6.01466 6.58579 7.00844 5.99882 8.32577C5.43533 9.61999 5.15359 11.1915 5.15359 13.0404C5.15359 15.7907 5.78751 17.94 7.05536 19.4884C8.32322 21.0369 10.0959 21.8111 12.3733 21.8111ZM39.4434 25.2778C38.6686 25.2778 38.0699 25.0813 37.6473 24.6884C37.2482 24.2724 37.0486 23.6831 37.0486 22.9204V3.19511C37.0486 2.43244 37.2482 1.85466 37.6473 1.46177C38.0699 1.04577 38.6686 0.837772 39.4434 0.837772H46.2757C50.4315 0.837772 53.6363 1.88933 55.8903 3.99244C58.1677 6.09555 59.3064 9.11155 59.3064 13.0404C59.3064 15.0049 59.013 16.7498 58.426 18.2751C57.8625 19.7773 57.0173 21.0484 55.8903 22.0884C54.7868 23.1284 53.425 23.9258 51.805 24.4804C50.2084 25.012 48.3654 25.2778 46.2757 25.2778H39.4434ZM41.5565 21.6031H45.994C47.4497 21.6031 48.7058 21.4298 49.7623 21.0831C50.8424 20.7133 51.7345 20.1818 52.4389 19.4884C53.1668 18.772 53.7068 17.8822 54.0589 16.8191C54.4111 15.7329 54.5872 14.4733 54.5872 13.0404C54.5872 10.1747 53.8711 8.03688 52.4389 6.6271C51.0067 5.21733 48.8584 4.51244 45.994 4.51244H41.5565V21.6031ZM68.418 25.6244C67.1737 25.6244 66.0584 25.3933 65.0723 24.9311C64.1097 24.4458 63.3466 23.7987 62.7831 22.9898C62.2431 22.1809 61.9731 21.268 61.9731 20.2511C61.9731 19.0031 62.3018 18.0209 62.9592 17.3044C63.6166 16.5649 64.6849 16.0333 66.1641 15.7098C67.6432 15.3862 69.6272 15.2244 72.1159 15.2244H73.8766V17.7204H72.1512C70.6955 17.7204 69.5333 17.7898 68.6646 17.9284C67.7958 18.0671 67.1737 18.3098 66.798 18.6564C66.4458 18.98 66.2697 19.4422 66.2697 20.0431C66.2697 20.8058 66.5397 21.4298 67.0797 21.9151C67.6198 22.4004 68.3711 22.6431 69.3337 22.6431C70.1085 22.6431 70.7894 22.4698 71.3764 22.1231C71.9868 21.7533 72.4681 21.2564 72.8203 20.6324C73.1725 20.0084 73.3486 19.292 73.3486 18.4831V14.4964C73.3486 13.3409 73.0903 12.5089 72.5738 12.0004C72.0572 11.492 71.1885 11.2378 69.9676 11.2378C69.2867 11.2378 68.5472 11.3187 67.7489 11.4804C66.9741 11.6422 66.1523 11.9195 65.2836 12.3124C64.8375 12.5204 64.4384 12.5782 64.0862 12.4858C63.7575 12.3933 63.4992 12.2084 63.3114 11.9311C63.1236 11.6307 63.0297 11.3071 63.0297 10.9604C63.0297 10.6138 63.1236 10.2787 63.3114 9.95511C63.4992 9.60844 63.8162 9.35422 64.2623 9.19244C65.3423 8.75333 66.3754 8.44133 67.3615 8.25644C68.3711 8.07155 69.2867 7.97911 70.1085 7.97911C71.799 7.97911 73.1842 8.23333 74.264 8.74177C75.3675 9.25022 76.1893 10.0244 76.7293 11.0644C77.2693 12.0813 77.5393 13.3987 77.5393 15.0164V23.3364C77.5393 24.0529 77.3632 24.6076 77.011 25.0004C76.6589 25.3702 76.1541 25.5551 75.4967 25.5551C74.8393 25.5551 74.3227 25.3702 73.9471 25.0004C73.5949 24.6076 73.4188 24.0529 73.4188 23.3364V21.6724H73.7005C73.5362 22.4813 73.2077 23.1862 72.7146 23.7871C72.2451 24.3649 71.6464 24.8155 70.9185 25.1391C70.1907 25.4627 69.3572 25.6244 68.418 25.6244ZM87.9243 25.6244C86.4216 25.6244 85.0951 25.2662 83.9446 24.5498C82.8176 23.8333 81.9372 22.8164 81.3032 21.4991C80.6693 20.1587 80.3524 18.5871 80.3524 16.7844C80.3524 14.9587 80.6693 13.3987 81.3032 12.1044C81.9372 10.7871 82.8176 9.77022 83.9446 9.05377C85.0951 8.33733 86.4216 7.97911 87.9243 7.97911C89.3565 7.97911 90.6008 8.32577 91.6574 9.01911C92.7374 9.71244 93.4652 10.6253 93.8409 11.7578H93.4535V2.74444C93.4535 2.02799 93.6413 1.48488 94.017 1.11511C94.3927 0.745328 94.9327 0.560437 95.637 0.560437C96.3414 0.560437 96.8814 0.745328 97.2571 1.11511C97.6562 1.48488 97.8558 2.02799 97.8558 2.74444V23.3364C97.8558 24.0529 97.6679 24.6076 97.2923 25.0004C96.9166 25.3702 96.3766 25.5551 95.6723 25.5551C94.9679 25.5551 94.4279 25.3702 94.0522 25.0004C93.6765 24.6076 93.4887 24.0529 93.4887 23.3364V20.6324L93.8761 21.6724C93.5239 22.8742 92.8078 23.8333 91.7278 24.5498C90.6478 25.2662 89.3799 25.6244 87.9243 25.6244ZM89.1569 22.3311C90.0256 22.3311 90.7887 22.1231 91.4461 21.7071C92.1035 21.2911 92.6083 20.6787 92.9604 19.8698C93.3361 19.0378 93.5239 18.0093 93.5239 16.7844C93.5239 14.9355 93.1248 13.5604 92.3265 12.6591C91.5282 11.7347 90.4717 11.2724 89.1569 11.2724C88.2882 11.2724 87.5251 11.4804 86.8677 11.8964C86.2103 12.2893 85.6938 12.9018 85.3181 13.7338C84.9659 14.5427 84.7898 15.5595 84.7898 16.7844C84.7898 18.6102 85.189 19.9969 85.9873 20.9444C86.7855 21.8689 87.8421 22.3311 89.1569 22.3311ZM109.569 25.6244C107.785 25.6244 106.235 25.2662 104.921 24.5498C103.606 23.8333 102.585 22.8164 101.857 21.4991C101.129 20.1587 100.765 18.5871 100.765 16.7844C100.765 15.4209 100.965 14.2076 101.364 13.1444C101.786 12.0582 102.385 11.1338 103.16 10.3711C103.935 9.58533 104.862 8.99599 105.942 8.6031C107.022 8.1871 108.231 7.97911 109.569 7.97911C111.354 7.97911 112.903 8.33733 114.218 9.05377C115.533 9.77022 116.554 10.7871 117.282 12.1044C118.01 13.4218 118.374 14.9818 118.374 16.7844C118.374 18.148 118.163 19.3729 117.74 20.4591C117.341 21.5453 116.754 22.4813 115.979 23.2671C115.204 24.0298 114.277 24.6191 113.197 25.0351C112.117 25.428 110.908 25.6244 109.569 25.6244ZM109.569 22.3311C110.438 22.3311 111.201 22.1231 111.859 21.7071C112.516 21.2911 113.021 20.6787 113.373 19.8698C113.749 19.0378 113.937 18.0093 113.937 16.7844C113.937 14.9355 113.537 13.5604 112.739 12.6591C111.941 11.7347 110.884 11.2724 109.569 11.2724C108.701 11.2724 107.938 11.4804 107.28 11.8964C106.623 12.2893 106.106 12.9018 105.731 13.7338C105.379 14.5427 105.202 15.5595 105.202 16.7844C105.202 18.6102 105.602 19.9969 106.4 20.9444C107.198 21.8689 108.255 22.3311 109.569 22.3311ZM130.829 25.5551C130.266 25.5551 129.808 25.428 129.456 25.1738C129.127 24.9195 128.928 24.5844 128.857 24.1684C128.787 23.7293 128.869 23.244 129.104 22.7124L138.401 2.43244C138.707 1.76222 139.071 1.28844 139.493 1.01111C139.939 0.710659 140.444 0.560437 141.008 0.560437C141.548 0.560437 142.029 0.710659 142.451 1.01111C142.898 1.28844 143.273 1.76222 143.578 2.43244L152.911 22.7124C153.17 23.244 153.263 23.7293 153.193 24.1684C153.123 24.6076 152.923 24.9542 152.594 25.2084C152.266 25.4396 151.831 25.5551 151.291 25.5551C150.634 25.5551 150.117 25.4049 149.742 25.1044C149.389 24.7809 149.072 24.2956 148.791 23.6484L146.502 18.4138L148.403 19.6271H133.541L135.443 18.4138L133.189 23.6484C132.884 24.3187 132.567 24.804 132.238 25.1044C131.909 25.4049 131.44 25.5551 130.829 25.5551ZM140.937 5.65644L136.007 17.2004L135.091 16.0911H146.854L145.973 17.2004L141.008 5.65644H140.937ZM156.651 25.2778C156.205 25.2778 155.829 25.1738 155.524 24.9658C155.242 24.7347 155.054 24.4458 154.961 24.0991C154.867 23.7524 154.867 23.3827 154.961 22.9898C155.078 22.5738 155.301 22.1809 155.63 21.8111L164.751 10.5444V11.5844H156.44C155.9 11.5844 155.477 11.4458 155.172 11.1684C154.89 10.868 154.749 10.4635 154.749 9.95511C154.749 9.42355 154.89 9.01911 155.172 8.74177C155.477 8.46444 155.9 8.32577 156.44 8.32577H166.864C167.381 8.32577 167.803 8.44133 168.132 8.67244C168.461 8.88044 168.672 9.15777 168.766 9.50444C168.883 9.8511 168.895 10.2209 168.801 10.6138C168.707 11.0067 168.496 11.3764 168.167 11.7231L158.87 23.1631V22.0191H167.674C168.801 22.0191 169.365 22.5622 169.365 23.6484C169.365 24.1569 169.212 24.5613 168.907 24.8618C168.625 25.1391 168.214 25.2778 167.674 25.2778H156.651ZM177.069 25.6244C175.824 25.6244 174.709 25.3933 173.723 24.9311C172.76 24.4458 171.997 23.7987 171.434 22.9898C170.894 22.1809 170.624 21.268 170.624 20.2511C170.624 19.0031 170.952 18.0209 171.61 17.3044C172.267 16.5649 173.336 16.0333 174.815 15.7098C176.294 15.3862 178.278 15.2244 180.767 15.2244H182.527V17.7204H180.802C179.346 17.7204 178.184 17.7898 177.315 17.9284C176.446 18.0671 175.824 18.3098 175.449 18.6564C175.096 18.98 174.92 19.4422 174.92 20.0431C174.92 20.8058 175.19 21.4298 175.73 21.9151C176.27 22.4004 177.022 22.6431 177.984 22.6431C178.759 22.6431 179.44 22.4698 180.027 22.1231C180.637 21.7533 181.119 21.2564 181.471 20.6324C181.823 20.0084 181.999 19.292 181.999 18.4831V14.4964C181.999 13.3409 181.741 12.5089 181.224 12.0004C180.708 11.492 179.839 11.2378 178.618 11.2378C177.937 11.2378 177.198 11.3187 176.4 11.4804C175.625 11.6422 174.803 11.9195 173.934 12.3124C173.488 12.5204 173.089 12.5782 172.737 12.4858C172.408 12.3933 172.15 12.2084 171.962 11.9311C171.774 11.6307 171.68 11.3071 171.68 10.9604C171.68 10.6138 171.774 10.2787 171.962 9.95511C172.15 9.60844 172.467 9.35422 172.913 9.19244C173.993 8.75333 175.026 8.44133 176.012 8.25644C177.022 8.07155 177.937 7.97911 178.759 7.97911C180.45 7.97911 181.835 8.23333 182.915 8.74177C184.018 9.25022 184.84 10.0244 185.38 11.0644C185.92 12.0813 186.19 13.3987 186.19 15.0164V23.3364C186.19 24.0529 186.014 24.6076 185.662 25.0004C185.31 25.3702 184.805 25.5551 184.148 25.5551C183.49 25.5551 182.974 25.3702 182.598 25.0004C182.246 24.6076 182.07 24.0529 182.07 23.3364V21.6724H182.351C182.187 22.4813 181.858 23.1862 181.365 23.7871C180.896 24.3649 180.297 24.8155 179.569 25.1391C178.841 25.4627 178.008 25.6244 177.069 25.6244ZM192.208 25.5551C191.48 25.5551 190.917 25.3702 190.518 25.0004C190.142 24.6076 189.954 24.0529 189.954 23.3364V10.2324C189.954 9.51599 190.142 8.97288 190.518 8.6031C190.893 8.23333 191.422 8.04844 192.102 8.04844C192.783 8.04844 193.312 8.23333 193.687 8.6031C194.063 8.97288 194.251 9.51599 194.251 10.2324V12.4164H193.899C194.227 11.0298 194.873 9.97822 195.836 9.26177C196.798 8.54533 198.078 8.11777 199.674 7.97911C200.167 7.93288 200.555 8.05999 200.836 8.36044C201.142 8.63777 201.318 9.07688 201.365 9.67777C201.412 10.2555 201.271 10.7293 200.942 11.0991C200.637 11.4458 200.167 11.6538 199.533 11.7231L198.759 11.7924C197.326 11.9311 196.246 12.3702 195.519 13.1098C194.791 13.8262 194.427 14.8431 194.427 16.1604V23.3364C194.427 24.0529 194.239 24.6076 193.863 25.0004C193.488 25.3702 192.936 25.5551 192.208 25.5551ZM208.54 25.6244C207.295 25.6244 206.18 25.3933 205.194 24.9311C204.231 24.4458 203.468 23.7987 202.905 22.9898C202.365 22.1809 202.095 21.268 202.095 20.2511C202.095 19.0031 202.424 18.0209 203.081 17.3044C203.738 16.5649 204.807 16.0333 206.286 15.7098C207.765 15.3862 209.749 15.2244 212.238 15.2244H213.999V17.7204H212.273C210.817 17.7204 209.655 17.7898 208.786 17.9284C207.918 18.0671 207.295 18.3098 206.92 18.6564C206.568 18.98 206.391 19.4422 206.391 20.0431C206.391 20.8058 206.661 21.4298 207.201 21.9151C207.741 22.4004 208.493 22.6431 209.455 22.6431C210.23 22.6431 210.911 22.4698 211.498 22.1231C212.109 21.7533 212.59 21.2564 212.942 20.6324C213.294 20.0084 213.47 19.292 213.47 18.4831V14.4964C213.47 13.3409 213.212 12.5089 212.695 12.0004C212.179 11.492 211.31 11.2378 210.089 11.2378C209.408 11.2378 208.669 11.3187 207.871 11.4804C207.096 11.6422 206.274 11.9195 205.405 12.3124C204.959 12.5204 204.56 12.5782 204.208 12.4858C203.879 12.3933 203.621 12.2084 203.433 11.9311C203.245 11.6307 203.151 11.3071 203.151 10.9604C203.151 10.6138 203.245 10.2787 203.433 9.95511C203.621 9.60844 203.938 9.35422 204.384 9.19244C205.464 8.75333 206.497 8.44133 207.483 8.25644C208.493 8.07155 209.408 7.97911 210.23 7.97911C211.921 7.97911 213.306 8.23333 214.386 8.74177C215.489 9.25022 216.311 10.0244 216.851 11.0644C217.391 12.0813 217.661 13.3987 217.661 15.0164V23.3364C217.661 24.0529 217.485 24.6076 217.133 25.0004C216.781 25.3702 216.276 25.5551 215.619 25.5551C214.961 25.5551 214.445 25.3702 214.069 25.0004C213.717 24.6076 213.541 24.0529 213.541 23.3364V21.6724H213.822C213.658 22.4813 213.329 23.1862 212.836 23.7871C212.367 24.3649 211.768 24.8155 211.04 25.1391C210.312 25.4627 209.479 25.6244 208.54 25.6244ZM228.046 25.6244C226.544 25.6244 225.217 25.2662 224.067 24.5498C222.94 23.8333 222.059 22.8164 221.425 21.4991C220.791 20.1587 220.474 18.5871 220.474 16.7844C220.474 14.9587 220.791 13.3987 221.425 12.1044C222.059 10.7871 222.94 9.77022 224.067 9.05377C225.217 8.33733 226.544 7.97911 228.046 7.97911C229.478 7.97911 230.723 8.32577 231.779 9.01911C232.859 9.71244 233.587 10.6253 233.963 11.7578H233.575V2.74444C233.575 2.02799 233.763 1.48488 234.139 1.11511C234.515 0.745328 235.055 0.560437 235.759 0.560437C236.463 0.560437 237.003 0.745328 237.379 1.11511C237.778 1.48488 237.978 2.02799 237.978 2.74444V23.3364C237.978 24.0529 237.79 24.6076 237.414 25.0004C237.039 25.3702 236.499 25.5551 235.794 25.5551C235.09 25.5551 234.55 25.3702 234.174 25.0004C233.798 24.6076 233.611 24.0529 233.611 23.3364V20.6324L233.998 21.6724C233.646 22.8742 232.93 23.8333 231.85 24.5498C230.77 25.2662 229.502 25.6244 228.046 25.6244ZM229.279 22.3311C230.148 22.3311 230.911 22.1231 231.568 21.7071C232.225 21.2911 232.73 20.6787 233.082 19.8698C233.458 19.0378 233.646 18.0093 233.646 16.7844C233.646 14.9355 233.247 13.5604 232.448 12.6591C231.65 11.7347 230.594 11.2724 229.279 11.2724C228.41 11.2724 227.647 11.4804 226.99 11.8964C226.332 12.2893 225.816 12.9018 225.44 13.7338C225.088 14.5427 224.912 15.5595 224.912 16.7844C224.912 18.6102 225.311 19.9969 226.109 20.9444C226.907 21.8689 227.964 22.3311 229.279 22.3311ZM249.691 25.6244C247.907 25.6244 246.357 25.2662 245.043 24.5498C243.728 23.8333 242.706 22.8164 241.979 21.4991C241.251 20.1587 240.887 18.5871 240.887 16.7844C240.887 15.4209 241.086 14.2076 241.486 13.1444C241.908 12.0582 242.507 11.1338 243.282 10.3711C244.056 9.58533 244.984 8.99599 246.064 8.6031C247.144 8.1871 248.353 7.97911 249.691 7.97911C251.476 7.97911 253.025 8.33733 254.34 9.05377C255.655 9.77022 256.676 10.7871 257.404 12.1044C258.132 13.4218 258.496 14.9818 258.496 16.7844C258.496 18.148 258.285 19.3729 257.862 20.4591C257.463 21.5453 256.876 22.4813 256.101 23.2671C255.326 24.0298 254.399 24.6191 253.319 25.0351C252.239 25.428 251.03 25.6244 249.691 25.6244ZM249.691 22.3311C250.56 22.3311 251.323 22.1231 251.981 21.7071C252.638 21.2911 253.143 20.6787 253.495 19.8698C253.871 19.0378 254.058 18.0093 254.058 16.7844C254.058 14.9355 253.659 13.5604 252.861 12.6591C252.063 11.7347 251.006 11.2724 249.691 11.2724C248.823 11.2724 248.06 11.4804 247.402 11.8964C246.745 12.2893 246.228 12.9018 245.853 13.7338C245.5 14.5427 245.324 15.5595 245.324 16.7844C245.324 18.6102 245.723 19.9969 246.522 20.9444C247.32 21.8689 248.377 22.3311 249.691 22.3311Z" fill="white"/>
</g>
<defs>
<clipPath id="clip0_7902_4">
<rect width="259" height="26" fill="white"/>
</clipPath>
</defs>
</svg>
